<?xml version="1.0" encoding="UTF-8"?>
<svg xmlns="http://www.w3.org/2000/svg" viewBox="0 0 100 120">
  <defs>
    <linearGradient id="gWarm" x1="0" y1="1" x2="0" y2="0">
      <stop offset="0%" stop-color="#ff5a2f"/>
      <stop offset="55%" stop-color="#ff8a1f"/>
      <stop offset="100%" stop-color="rgba(255,180,120,.85)"/>
    </linearGradient>
    <linearGradient id="gCool" x1="0" y1="1" x2="0" y2="0">
      <stop offset="0%" stop-color="#0b68ff"/>
      <stop offset="60%" stop-color="#0aa4ff"/>
      <stop offset="100%" stop-color="#0bd0ff"/>
    </linearGradient>
    <radialGradient id="edgeGlow" cx="50%" cy="50%" r="65%">
      <stop offset="50%" stop-color="rgba(255,255,255,.18)"/>
      <stop offset="95%" stop-color="rgba(255,255,255,.02)"/>
      <stop offset="100%" stop-color="transparent"/>
    </radialGradient>
    <filter id="soft" x="-40%" y="-40%" width="180%" height="180%">
      <feGaussianBlur stdDeviation="1.2" result="b"/>
      <feMerge>
        <feMergeNode in="b"/>
        <feMergeNode in="SourceGraphic"/>
      </feMerge>
    </filter>
  </defs>
  <!-- outer glass shape -->
  <rect x="8" y="6" width="84" height="108" rx="28" ry="28"
        fill="url(#edgeGlow)" stroke="rgba(255,255,255,.25)" stroke-width="0.6"/>
  <!-- cool half -->
  <path d="M92,60c0,30-18,54-40,54S12,90,12,60s18-54,40-54S92,30,92,60Z
               M50,18c-10,0-18,8-18,18c0,28,18,18,18,42c0-24,18-14,18-42c0-10-8-18-18-18Z"
        fill="url(#gCool)" filter="url(#soft)"/>
  <!-- warm half -->
  <path d="M92,60c0,30-18,54-40,54V6c22,0,40,24,40,54Z"
        fill="url(#gWarm)" opacity=".75" filter="url(#soft)"/>
  <!-- glowing S line -->
  <path d="M34,36c8,-18 40,0 34,24c-4,16-22,14-18,36" fill="none"
        stroke="white" stroke-opacity=".9" stroke-width="1.2" filter="url(#soft)"/>
  <path d="M34,36c8,-18 40,0 34,24c-4,16-22,14-18,36" fill="none"
        stroke="#0bd0ff" stroke-width="0.9" stroke-opacity=".9"/>
</svg>