<?xml version="1.0" encoding="UTF-8"?>
<svg xmlns="http://www.w3.org/2000/svg" viewBox="0 0 100 100">
  <defs>
    <linearGradient id="seedCool" x1="0" y1="1" x2="1" y2="0">
      <stop offset="0%" stop-color="#0b68ff"/>
      <stop offset="100%" stop-color="#0bd0ff"/>
    </linearGradient>
    <linearGradient id="seedWarm" x1="1" y1="1" x2="0" y2="0">
      <stop offset="0%" stop-color="#ff5a2f"/>
      <stop offset="100%" stop-color="#ff8a1f"/>
    </linearGradient>
    <filter id="seedBlur" x="-40%" y="-40%" width="180%" height="180%">
      <feGaussianBlur stdDeviation="0.9"/>
    </filter>
  </defs>
  <!-- left bean -->
  <path d="M12,50c0,-22 18,-38 34,-38c10,0 12,6 12,9c0,5 -5,7 -9,12c-4,5 -7,9 -7,17
               c0,8 3,12 7,17c4,5 9,7 9,12c0,3 -2,9 -12,9C30,88 12,72 12,50Z"
        fill="url(#seedWarm)" filter="url(#seedBlur)"/>
  <!-- right bean -->
  <path d="M88,50c0,22 -18,38 -34,38c-10,0 -12,-6 -12,-9c0,-5 5,-7 9,-12c4,-5 7,-9 7,-17
               c0,-8 -3,-12 -7,-17c-4,-5 -9,-7 -9,-12c0,-3 2,-9 12,-9C70,12 88,28 88,50Z"
        fill="url(#seedCool)" filter="url(#seedBlur)"/>
  <!-- S-lines -->
  <path d="M36,28c10,-9 24,2 20,12c-3,8 -12,8 -12,20" fill="none" stroke="white" stroke-opacity=".85" stroke-width="1.2"/>
  <path d="M64,72c-10,9 -24,-2 -20,-12c3,-8 12,-8 12,-20" fill="none" stroke="white" stroke-opacity=".85" stroke-width="1.2"/>
</svg>