<svg xmlns="http://www.w3.org/2000/svg" style="display:none">
  <symbol id="home" viewBox="0 0 24 24" fill="none" stroke="currentColor" stroke-width="2" stroke-linecap="round" stroke-linejoin="round">
    <path d="M3 10.5 12 3l9 7.5V21a1 1 0 0 1-1 1h-5v-6H9v6H4a1 1 0 0 1-1-1v-10.5Z"/>
  </symbol>
  <symbol id="grid" viewBox="0 0 24 24" fill="none" stroke="currentColor" stroke-width="2" stroke-linecap="round" stroke-linejoin="round">
    <rect x="3" y="3" width="7" height="7" rx="1"/><rect x="14" y="3" width="7" height="7" rx="1"/>
    <rect x="3" y="14" width="7" height="7" rx="1"/><rect x="14" y="14" width="7" height="7" rx="1"/>
  </symbol>
  <symbol id="user" viewBox="0 0 24 24" fill="none" stroke="currentColor" stroke-width="2" stroke-linecap="round" stroke-linejoin="round">
    <circle cx="12" cy="8" r="4"/><path d="M4 21c0-4 4-7 8-7s8 3 8 7"/>
  </symbol>
  <symbol id="bolt" viewBox="0 0 24 24" fill="currentColor">
    <path d="M11 2 3 14h7l-1 8 8-12h-7l1-8Z"/>
  </symbol>
  <symbol id="audio" viewBox="0 0 24 24" fill="none" stroke="currentColor" stroke-width="2" stroke-linecap="round" stroke-linejoin="round">
    <path d="m11 5-4 4H3v6h4l4 4V5z"/><path d="M19 5c1.5 1.5 2 3 2 7s-.5 5.5-2 7"/>
  </symbol>
  <symbol id="json" viewBox="0 0 24 24" fill="none" stroke="currentColor" stroke-width="2" stroke-linecap="round" stroke-linejoin="round">
    <rect x="3" y="3" width="18" height="18" rx="2"/>
    <path d="M8 8v8M7 9h2M7 15h2M12 9h3v6h-3zM18 9h1M18 15h1"/>
  </symbol>
  <symbol id="download" viewBox="0 0 24 24" fill="none" stroke="currentColor" stroke-width="2" stroke-linecap="round" stroke-linejoin="round">
    <path d="M12 3v12"/><path d="m7 11 5 5 5-5"/><path d="M5 21h14"/>
  </symbol>
  <symbol id="upload" viewBox="0 0 24 24" fill="none" stroke="currentColor" stroke-width="2" stroke-linecap="round" stroke-linejoin="round">
    <path d="M12 21V9"/><path d="m17 13-5-5-5 5"/><path d="M5 3h14"/>
  </symbol>
  <symbol id="play" viewBox="0 0 24 24" fill="currentColor">
    <path d="M8 5v14l11-7-11-7Z"/>
  </symbol>
  <symbol id="pause" viewBox="0 0 24 24" fill="currentColor">
    <rect x="6" y="5" width="4" height="14"/><rect x="14" y="5" width="4" height="14"/>
  </symbol>
</svg>
